<svg width="152" height="29" viewBox="0 0 152 29" fill="none" xmlns="http://www.w3.org/2000/svg">
<g id="behance-3 2" clip-path="url(#clip0_387_386)">
<g id="Group">
<path id="Vector" d="M0.474609 0.210205H6.86919V28.0977H0.474609V0.210205Z" fill="#F6F6F6"/>
<path id="Vector_2" d="M6.63086 0.210205H14.9865V5.16662H6.63086V0.210205ZM6.63086 23.1428H14.9865V28.0992H6.63086V23.1428ZM6.63086 11.3908H14.9865V15.6891H6.63086V11.3908Z" fill="#F6F6F6"/>
<path id="Vector_3" d="M14.9871 28.0992C14.9871 28.0992 23.8466 28.3783 23.8466 19.8669C23.8466 19.8669 24.233 12.942 18.6243 12.942C18.6243 12.942 22.88 12.6262 22.88 7.63601C22.88 2.64581 19.3985 0.210205 14.9885 0.210205C10.5786 0.210205 10.8107 2.68841 10.8107 2.68841L13.9441 5.16662H14.9885C14.9885 5.16662 16.9614 5.16662 16.9614 8.0679C16.9614 10.9692 15.8009 11.3893 14.4861 11.3893C13.1714 11.3893 12.6675 13.5385 12.6675 13.5385L14.9885 15.6876C14.9885 15.6876 17.928 15.6494 17.928 19.5173C17.928 23.3852 14.8328 23.1399 14.0601 23.1399C13.2874 23.1399 13.5181 25.1274 13.5181 25.1274L14.9871 28.0992ZM35.6618 7.30548C24.9366 7.30548 24.9469 18.0204 24.9469 18.0204C24.9469 18.0204 24.2109 28.6809 35.6618 28.6809C35.6618 28.6809 45.2044 29.2259 45.2044 21.2654H40.2965C40.2965 21.2654 40.4596 24.2636 35.8249 24.2636C35.8249 24.2636 30.9169 24.5912 30.9169 19.4115H45.3675C45.369 19.4115 46.9496 7.30548 35.6618 7.30548ZM30.8626 15.6891C30.8626 15.6891 31.4619 11.3908 35.7705 11.3908C40.0791 11.3908 40.0233 15.6891 40.0233 15.6891H30.8626ZM141.971 7.30548C131.245 7.30548 131.256 18.0204 131.256 18.0204C131.256 18.0204 130.52 28.6809 141.972 28.6809C141.972 28.6809 151.515 29.2259 151.515 21.2654H146.607C146.607 21.2654 146.77 24.2636 142.135 24.2636C142.135 24.2636 137.227 24.5912 137.227 19.4115H151.679C151.676 19.4115 153.257 7.30548 141.971 7.30548ZM137.171 15.6891C137.171 15.6891 137.771 11.3908 142.079 11.3908C146.386 11.3908 146.332 15.6891 146.332 15.6891H137.171ZM29.6624 1.85255H41.1691V5.28708H29.6624V1.85255ZM47.549 0.210205H53.2193V28.0845H47.549V0.210205ZM66.2523 13.9042H60.6907V28.0845H66.2523V13.9042Z" fill="#F6F6F6"/>
<path id="Vector_4" d="M60.6192 13.9043C60.6192 13.9043 60.6192 11.7772 57.0907 11.7772C53.8192 11.7772 53.2198 14.3406 53.2198 16.7938C53.2198 19.2471 52.8379 11.3952 52.8379 11.3952C52.8379 11.3952 54.6374 7.30554 59.4367 7.30554C64.2359 7.30554 66.2528 10.7739 66.2528 14.1805C66.2528 17.5871 64.324 15.9418 64.324 15.9418L60.6207 15.0633V13.9028L60.6192 13.9043ZM89.7157 7.60375H95.3861V28.0846H89.7157V7.60375ZM108.421 13.9043H102.859V28.0846H108.421V13.9043Z" fill="#F6F6F6"/>
<path id="Vector_5" d="M102.787 13.9043C102.787 13.9043 102.787 11.7772 99.258 11.7772C95.9865 11.7772 95.3872 14.3406 95.3872 16.7938C95.3872 19.2471 95.0052 11.3952 95.0052 11.3952C95.0052 11.3952 96.8048 7.30554 101.604 7.30554C106.402 7.30554 108.42 10.7739 108.42 14.1805C108.42 17.5871 106.491 15.9418 106.491 15.9418L102.787 15.0633V13.9043ZM87.8174 28.0846C87.8174 28.0846 86.7627 27.5425 86.7627 24.2314V12.2884C86.7627 12.2884 87.434 7.30701 78.4584 7.30701C69.4843 7.30701 68.9084 11.8051 68.8599 14.4919H74.8593C74.8593 14.4919 74.6199 10.9384 78.4114 10.9384C78.4114 10.9384 81.627 10.6828 81.627 13.9058C81.627 13.9058 81.627 16.0241 78.6993 16.2165C75.7716 16.4089 68.3326 16.3619 68.3326 22.4084C68.3326 22.4084 68.1401 28.7912 74.9798 28.7912C74.9798 28.7912 79.6601 28.8866 81.627 26.0074V28.0846H87.8174ZM81.5786 21.784C81.5786 21.784 81.0982 24.8557 77.0188 24.8557C77.0188 24.8557 73.6592 25.0011 73.6592 22.1204C73.6592 22.1204 73.3713 19.9125 78.075 19.1927C79.9465 19.0487 80.8103 18.9195 81.5786 18.0484V21.784ZM130.366 20.1916H124.495C124.495 20.1916 124.639 24.3225 120.799 24.3225C116.958 24.3225 115.944 20.2063 115.944 17.8456C115.944 15.482 116.741 11.4966 120.871 11.4966C125.002 11.4966 124.857 15.0472 124.857 15.0472H130.003C130.003 15.0472 130.364 7.30701 120.945 7.30701C111.524 7.30701 110.511 14.9355 110.511 17.9984C110.511 21.0613 112.104 28.7912 120.801 28.7912C129.496 28.7897 130.366 21.7855 130.366 20.1916Z" fill="#F6F6F6"/>
</g>
</g>
<defs>
<clipPath id="clip0_387_386">
<rect width="151.325" height="28.6013" fill="white" transform="translate(0.451172 0.199341)"/>
</clipPath>
</defs>
</svg>
