<svg width="155" height="31" viewBox="0 0 155 31" fill="none" xmlns="http://www.w3.org/2000/svg">
<g id="facebook-5 1" clip-path="url(#clip0_387_393)">
<g id="_Group_">
<path id="_Path_" d="M12.8132 5.32C11.0115 5.32 10.4709 6.11279 10.4709 7.87853V10.7974H15.2997L14.8312 15.5541H10.4709V29.9323H4.66919V15.5541H0.777344V10.8334H4.66919V7.98664C4.66919 3.15787 6.61511 0.635376 11.9844 0.635376C13.1015 0.635376 14.2547 0.707447 15.3718 0.85159V5.32" fill="#F6F6F6"/>
<path id="_Compound_Path_" d="M15.6962 19.7703C15.6962 14.437 18.2187 10.401 23.552 10.401C26.4348 10.401 28.2005 11.8785 29.0654 13.7523V10.8334H34.6149V29.9683H29.0294V27.0855C28.2366 28.9233 26.3988 30.3647 23.5159 30.3647C18.2187 30.3647 15.6602 26.3648 15.6602 20.9955M21.4979 21.0675C21.4979 23.9144 22.543 25.8242 25.2456 25.8242C27.624 25.8242 28.8132 24.0945 28.8132 21.3558V19.4099C28.8132 16.6712 27.5879 14.9415 25.2456 14.9415C22.543 14.9415 21.4979 16.8153 21.4979 19.6982V21.0675Z" fill="#F6F6F6"/>
<path id="_Path_2" d="M46.6511 10.401C48.8853 10.401 51.0474 10.8695 52.2006 11.6983L50.9033 15.8063C49.7141 15.2298 48.3808 14.9415 47.0475 14.9415C43.9124 14.9415 42.543 16.7433 42.543 19.8423V20.9594C42.543 24.0585 43.9124 25.8603 47.0475 25.8603C48.3808 25.8603 49.7141 25.536 50.9033 24.9594L52.2006 29.0674C51.0474 29.8602 48.9213 30.3647 46.6511 30.3647C39.8404 30.3647 36.7773 26.7251 36.7773 20.8513V19.9504C36.7773 14.0766 39.8404 10.401 46.6511 10.401Z" fill="#F6F6F6"/>
<path id="_Compound_Path_2" d="M52.957 21.1036V19.4099C52.957 13.9685 56.0561 10.401 62.3623 10.401C68.3082 10.401 70.9388 14.0046 70.9388 19.3378V22.4009H58.7588C58.8669 25.0315 60.056 26.1846 63.2632 26.1846C65.3533 26.1846 67.4433 25.7882 69.4253 25.0315L70.4703 28.9954C68.9568 29.7881 65.8217 30.4008 63.047 30.4008C55.6957 30.3647 52.957 26.7251 52.957 21.1036ZM58.7588 18.5811H65.7497V18.1126C65.7497 16.0226 64.9208 14.3649 62.3623 14.3649C59.7678 14.3649 58.7588 16.0226 58.7588 18.5811Z" fill="#F6F6F6"/>
<path id="_Compound_Path_3" d="M92.4164 20.9954C92.4164 26.3287 89.8578 30.3647 84.5246 30.3647C81.6417 30.3647 79.6237 28.9233 78.8309 27.0855V29.9683H73.3535V1.2119L79.1552 0.707397V13.5C79.9841 11.8064 81.8579 10.437 84.5606 10.437C89.8578 10.437 92.4524 14.437 92.4524 19.8063M86.6146 19.6621C86.6146 16.9595 85.5696 14.9415 82.7948 14.9415C80.4165 14.9415 79.1552 16.6351 79.1552 19.3738V21.3918C79.1552 24.1305 80.4525 25.8242 82.7948 25.8242C85.5696 25.8242 86.6146 23.8062 86.6146 21.1035V19.6621Z" fill="#F6F6F6"/>
<path id="_Compound_Path_4" d="M94.3262 20.8513V19.8784C94.3262 14.3649 97.4613 10.401 103.84 10.401C110.218 10.401 113.353 14.3649 113.353 19.8784V20.8513C113.353 26.3648 110.218 30.3287 103.84 30.3287C97.4613 30.3287 94.3262 26.4008 94.3262 20.8513ZM107.587 19.482C107.587 16.9595 106.542 14.9415 103.84 14.9415C101.137 14.9415 100.092 16.9595 100.092 19.482V21.2838C100.092 23.8062 101.137 25.8242 103.84 25.8242C106.542 25.8242 107.587 23.8062 107.587 21.2838V19.482Z" fill="#F6F6F6"/>
<path id="_Compound_Path_5" d="M115.334 20.8513V19.8784C115.334 14.3649 118.469 10.401 124.847 10.401C131.226 10.401 134.361 14.3649 134.361 19.8784V20.8513C134.361 26.3648 131.226 30.3287 124.847 30.3287C118.469 30.3287 115.334 26.4008 115.334 20.8513ZM128.595 19.482C128.595 16.9595 127.55 14.9415 124.847 14.9415C122.145 14.9415 121.1 16.9595 121.1 19.482V21.2838C121.1 23.8062 122.145 25.8242 124.847 25.8242C127.55 25.8242 128.595 23.8062 128.595 21.2838V19.482Z" fill="#F6F6F6"/>
<path id="_Path_3" d="M142.324 19.9504L148.054 10.7973H154.18L148.198 20.2747L154.432 29.9683H148.27L142.324 20.599V29.9683H136.559V1.21186L142.324 0.671326" fill="#F6F6F6"/>
</g>
</g>
<defs>
<clipPath id="clip0_387_393">
<rect width="153.656" height="29.7478" fill="white" transform="translate(0.777344 0.626099)"/>
</clipPath>
</defs>
</svg>
