<svg width="142" height="29" viewBox="0 0 142 29" fill="none" xmlns="http://www.w3.org/2000/svg">
<path d="M4.75238 28H0.434375V0.8H11.2464C14.737 0.8 17.661 1.43467 20.0184 2.704C22.3984 3.97333 23.5884 6.28533 23.5884 9.64C23.5884 12.6093 22.3757 14.7287 19.9504 15.998C17.525 17.2673 14.6237 17.902 11.2464 17.902H4.75238V28ZM11.2464 13.754C13.7397 13.754 15.6097 13.448 16.8564 12.836C18.103 12.2013 18.7264 11.0907 18.7264 9.504C18.7264 7.94 18.0917 6.818 16.8224 6.138C15.553 5.458 13.6944 5.118 11.2464 5.118H4.75238V13.754H11.2464ZM34.1435 8.552C37.3395 8.552 39.7195 9.3 41.2835 10.796C42.8475 12.2693 43.6295 14.502 43.6295 17.494V28H39.4475L40.1275 21.472H39.6175C38.8015 26.1413 36.3535 28.476 32.2735 28.476C29.9388 28.476 28.1935 27.9773 27.0375 26.98C25.8815 25.9827 25.3035 24.566 25.3035 22.73C25.3035 20.758 26.0855 19.2167 27.6495 18.106C29.2135 16.9953 31.4688 16.44 34.4155 16.44H39.3795C39.1528 15.2387 38.6088 14.3547 37.7475 13.788C36.9088 13.1987 35.7075 12.904 34.1435 12.904C33.0555 12.904 32.1375 13.1307 31.3895 13.584C30.6415 14.0147 29.9275 14.6947 29.2475 15.624L25.7795 13.278C26.8675 11.714 28.0802 10.5353 29.4175 9.742C30.7775 8.94867 32.3528 8.552 34.1435 8.552ZM32.9195 24.09C34.8235 24.09 36.2855 23.682 37.3055 22.866C38.3255 22.05 38.9715 20.8487 39.2435 19.262H34.4155C32.7835 19.262 31.5822 19.4773 30.8115 19.908C30.0408 20.316 29.6555 20.9507 29.6555 21.812C29.6555 22.492 29.9275 23.0473 30.4715 23.478C31.0155 23.886 31.8315 24.09 32.9195 24.09ZM53.647 18.038C53.647 20.0553 53.749 21.4153 53.953 22.118C54.157 22.8207 54.633 23.274 55.381 23.478C56.1517 23.6593 57.6364 23.75 59.835 23.75V28C56.4804 28 54.089 27.728 52.661 27.184C51.233 26.64 50.3264 25.7333 49.941 24.464C49.5784 23.172 49.397 21.03 49.397 18.038V13.108H45.657V8.756H49.397V2.16H53.647V8.756H59.801V13.108H53.647V18.038ZM67.2675 15.046C67.5395 13.346 67.9928 12.0427 68.6275 11.136C69.2622 10.2293 70.0782 9.606 71.0755 9.266C72.0955 8.926 73.4102 8.756 75.0195 8.756V13.482C74.3395 13.346 73.7048 13.278 73.1155 13.278C71.3248 13.278 69.9422 13.8447 68.9675 14.978C68.0155 16.0887 67.5395 17.6413 67.5395 19.636V28H63.2215V8.722H67.5395L66.5875 15.046H67.2675ZM81.4192 19.84C81.6685 21.2 82.2805 22.288 83.2552 23.104C84.2525 23.8973 85.4992 24.294 86.9952 24.294C89.3979 24.294 91.3019 23.3647 92.7072 21.506L95.5972 23.478C94.7132 25.1553 93.5119 26.4133 91.9932 27.252C90.4745 28.0907 88.8085 28.51 86.9952 28.51C85.2045 28.51 83.5499 28.068 82.0312 27.184C80.5125 26.2773 79.2999 25.0647 78.3932 23.546C77.5092 22.0047 77.0672 20.3273 77.0672 18.514C77.0672 16.7007 77.5092 15.0347 78.3932 13.516C79.2999 11.9973 80.5125 10.796 82.0312 9.912C83.5499 9.00533 85.2045 8.552 86.9952 8.552C88.8992 8.552 90.5765 9.028 92.0272 9.98C93.4779 10.932 94.5885 12.2693 95.3592 13.992C96.1299 15.692 96.4812 17.6413 96.4132 19.84H81.4192ZM86.9952 12.7C85.5899 12.7 84.3885 13.108 83.3912 13.924C82.4165 14.7173 81.7705 15.7373 81.4532 16.984H92.3332C92.0612 15.6467 91.4265 14.604 90.4292 13.856C89.4545 13.0853 88.3099 12.7 86.9952 12.7ZM109.501 28.51C107.71 28.51 106.078 28.0567 104.605 27.15C103.131 26.2433 101.964 25.008 101.103 23.444C100.264 21.88 99.8445 20.1687 99.8445 18.31C99.8445 16.474 100.264 14.7853 101.103 13.244C101.964 11.7027 103.131 10.4787 104.605 9.572C106.078 8.66533 107.71 8.212 109.501 8.212C111.291 8.212 112.923 8.66533 114.397 9.572C115.87 10.4787 117.026 11.7027 117.865 13.244C118.703 14.7853 119.123 16.474 119.123 18.31C119.123 20.1687 118.703 21.88 117.865 23.444C117.026 25.008 115.87 26.2433 114.397 27.15C112.923 28.0567 111.291 28.51 109.501 28.51ZM109.501 24.294C111.133 24.294 112.436 23.7387 113.411 22.628C114.385 21.4947 114.873 20.0667 114.873 18.344C114.873 16.6213 114.385 15.2047 113.411 14.094C112.436 12.9833 111.133 12.428 109.501 12.428C107.891 12.428 106.588 12.9947 105.591 14.128C104.593 15.2387 104.095 16.644 104.095 18.344C104.095 20.0667 104.593 21.4947 105.591 22.628C106.588 23.7387 107.891 24.294 109.501 24.294ZM133.912 8.246C136.61 8.246 138.627 9.08467 139.964 10.762C141.324 12.4393 142.004 15.148 142.004 18.888V28H137.788V18.888C137.788 16.7347 137.38 15.148 136.564 14.128C135.748 13.108 134.456 12.598 132.688 12.598C130.898 12.598 129.481 13.21 128.438 14.434C127.396 15.6353 126.874 17.3693 126.874 19.636V28H122.522V8.756H126.874L125.922 15.046H126.568C126.84 13.2327 127.294 11.8387 127.928 10.864C128.563 9.86667 129.356 9.18667 130.308 8.824C131.283 8.43867 132.484 8.246 133.912 8.246Z" fill="#F6F6F6"/>
</svg>
