<svg width="170" height="35" viewBox="0 0 170 35" fill="none" xmlns="http://www.w3.org/2000/svg">
<path d="M22.0893 0.8V5.05H13.5553V28H9.30529V5.05H0.771289V0.833999H9.30529V0.8H22.0893ZM26.4397 19.84C26.689 21.2 27.301 22.288 28.2757 23.104C29.273 23.8973 30.5197 24.294 32.0157 24.294C34.4184 24.294 36.3224 23.3647 37.7277 21.506L40.6177 23.478C39.7337 25.1553 38.5324 26.4133 37.0137 27.252C35.495 28.0907 33.829 28.51 32.0157 28.51C30.225 28.51 28.5704 28.068 27.0517 27.184C25.533 26.2773 24.3204 25.0647 23.4137 23.546C22.5297 22.0047 22.0877 20.3273 22.0877 18.514C22.0877 16.7007 22.5297 15.0347 23.4137 13.516C24.3204 11.9973 25.533 10.796 27.0517 9.912C28.5704 9.00533 30.225 8.552 32.0157 8.552C33.9197 8.552 35.597 9.028 37.0477 9.98C38.4984 10.932 39.609 12.2693 40.3797 13.992C41.1504 15.692 41.5017 17.6413 41.4337 19.84H26.4397ZM32.0157 12.7C30.6104 12.7 29.409 13.108 28.4117 13.924C27.437 14.7173 26.791 15.7373 26.4737 16.984H37.3537C37.0817 15.6467 36.447 14.604 35.4497 13.856C34.475 13.0853 33.3304 12.7 32.0157 12.7ZM44.865 0.8H49.115V28H44.865V0.8ZM56.8538 19.84C57.1031 21.2 57.7151 22.288 58.6898 23.104C59.6871 23.8973 60.9338 24.294 62.4298 24.294C64.8324 24.294 66.7364 23.3647 68.1418 21.506L71.0318 23.478C70.1478 25.1553 68.9464 26.4133 67.4278 27.252C65.9091 28.0907 64.2431 28.51 62.4298 28.51C60.6391 28.51 58.9844 28.068 57.4658 27.184C55.9471 26.2773 54.7344 25.0647 53.8278 23.546C52.9438 22.0047 52.5018 20.3273 52.5018 18.514C52.5018 16.7007 52.9438 15.0347 53.8278 13.516C54.7344 11.9973 55.9471 10.796 57.4658 9.912C58.9844 9.00533 60.6391 8.552 62.4298 8.552C64.3338 8.552 66.0111 9.028 67.4618 9.98C68.9124 10.932 70.0231 12.2693 70.7938 13.992C71.5644 15.692 71.9158 17.6413 71.8478 19.84H56.8538ZM62.4298 12.7C61.0244 12.7 59.8231 13.108 58.8258 13.924C57.8511 14.7173 57.2051 15.7373 56.8878 16.984H67.7678C67.4958 15.6467 66.8611 14.604 65.8638 13.856C64.8891 13.0853 63.7444 12.7 62.4298 12.7ZM84.951 34.8C82.5257 34.8 80.531 34.426 78.967 33.678C77.4257 32.9527 76.111 31.808 75.023 30.244L78.287 28.102C79.0804 29.2127 79.987 29.9833 81.007 30.414C82.027 30.8447 83.3417 31.06 84.951 31.06C86.991 31.06 88.6004 30.448 89.779 29.224C90.9577 28.0227 91.6264 26.4927 91.785 24.634L92.057 21.676H91.479C91.003 24.1013 90.1077 25.8013 88.793 26.776C87.501 27.728 85.9144 28.204 84.033 28.204C82.5597 28.204 81.177 27.7733 79.885 26.912C78.593 26.0507 77.5504 24.872 76.757 23.376C75.9864 21.88 75.601 20.2253 75.601 18.412C75.601 16.6213 75.9637 14.978 76.689 13.482C77.437 11.9633 78.457 10.7733 79.749 9.912C81.041 9.028 82.469 8.586 84.033 8.586C85.869 8.586 87.433 9.13 88.725 10.218C90.017 11.306 90.901 12.904 91.377 15.012H92.057L91.717 8.756H96.069V21.778C96.069 26.198 95.0717 29.4733 93.077 31.604C91.0824 33.7347 88.3737 34.8 84.951 34.8ZM85.563 24.192C86.515 24.192 87.4217 23.954 88.283 23.478C89.167 22.9793 89.8697 22.2993 90.391 21.438C90.935 20.554 91.207 19.5453 91.207 18.412C91.207 16.78 90.663 15.488 89.575 14.536C88.5097 13.5613 87.1724 13.074 85.563 13.074C84.475 13.074 83.489 13.312 82.605 13.788C81.7437 14.2413 81.0637 14.876 80.565 15.692C80.0664 16.508 79.817 17.4147 79.817 18.412C79.817 19.5453 80.055 20.554 80.531 21.438C81.0297 22.2993 81.7097 22.9793 82.571 23.478C83.455 23.954 84.4524 24.192 85.563 24.192ZM104.559 15.046C104.831 13.346 105.285 12.0427 105.919 11.136C106.554 10.2293 107.37 9.606 108.367 9.266C109.387 8.926 110.702 8.756 112.311 8.756V13.482C111.631 13.346 110.997 13.278 110.407 13.278C108.617 13.278 107.234 13.8447 106.259 14.978C105.307 16.0887 104.831 17.6413 104.831 19.636V28H100.513V8.722H104.831L103.879 15.046H104.559ZM123.531 8.552C126.727 8.552 129.107 9.3 130.671 10.796C132.235 12.2693 133.017 14.502 133.017 17.494V28H128.835L129.515 21.472H129.005C128.189 26.1413 125.741 28.476 121.661 28.476C119.327 28.476 117.581 27.9773 116.425 26.98C115.269 25.9827 114.691 24.566 114.691 22.73C114.691 20.758 115.473 19.2167 117.037 18.106C118.601 16.9953 120.857 16.44 123.803 16.44H128.767C128.541 15.2387 127.997 14.3547 127.135 13.788C126.297 13.1987 125.095 12.904 123.531 12.904C122.443 12.904 121.525 13.1307 120.777 13.584C120.029 14.0147 119.315 14.6947 118.635 15.624L115.167 13.278C116.255 11.714 117.468 10.5353 118.805 9.742C120.165 8.94867 121.741 8.552 123.531 8.552ZM122.307 24.09C124.211 24.09 125.673 23.682 126.693 22.866C127.713 22.05 128.359 20.8487 128.631 19.262H123.803C122.171 19.262 120.97 19.4773 120.199 19.908C119.429 20.316 119.043 20.9507 119.043 21.812C119.043 22.492 119.315 23.0473 119.859 23.478C120.403 23.886 121.219 24.09 122.307 24.09ZM140.758 8.722L139.806 15.046H140.622C141.143 12.5527 142.084 10.796 143.444 9.776C144.804 8.756 146.345 8.246 148.068 8.246C150.04 8.246 151.581 8.83533 152.692 10.014C153.825 11.17 154.347 12.8473 154.256 15.046H155.072C155.593 12.5527 156.534 10.796 157.894 9.776C159.254 8.756 160.795 8.246 162.518 8.246C164.853 8.246 166.621 9.03933 167.822 10.626C169.046 12.2127 169.658 14.9667 169.658 18.888V28H165.442V18.888C165.442 14.6947 163.923 12.598 160.886 12.598C159.095 12.598 157.701 13.21 156.704 14.434C155.707 15.6353 155.208 17.3693 155.208 19.636V28H150.992V18.888C150.992 14.6947 149.473 12.598 146.436 12.598C144.645 12.598 143.251 13.21 142.254 14.434C141.257 15.6353 140.758 17.3693 140.758 19.636V28H136.406V8.722H140.758Z" fill="#F6F6F6"/>
</svg>
