<svg viewBox="0 0 20 21" fill="none" xmlns="http://www.w3.org/2000/svg">
<path id="Arrow 1" d="M0.845299 17.3453C0.207576 17.983 0.207576 19.017 0.845299 19.6547C1.48302 20.2924 2.51698 20.2924 3.1547 19.6547L0.845299 17.3453ZM19.633 2.5C19.633 1.59812 18.9019 0.867008 18 0.867007L3.30306 0.867008C2.40118 0.867007 1.67007 1.59812 1.67007 2.5C1.67007 3.40188 2.40118 4.13299 3.30306 4.13299H16.367V17.1969C16.367 18.0988 17.0981 18.8299 18 18.8299C18.9019 18.8299 19.633 18.0988 19.633 17.1969L19.633 2.5ZM3.1547 19.6547L19.1547 3.6547L16.8453 1.3453L0.845299 17.3453L3.1547 19.6547Z" fill="#070707"/>
</svg>
