<svg width="39" height="39" viewBox="0 0 39 39" fill="none" xmlns="http://www.w3.org/2000/svg">
<path d="M27.6185 11.497C26.171 5.75797 23.1968 1.82349 19.7636 1.82349C14.9075 1.82349 10.9695 9.69774 10.9695 19.4117C10.9695 29.1257 14.9075 37 19.7636 37C20.3663 36.9976 20.9526 36.8804 21.5224 36.6482M25.3813 22.414L32.0894 25.6854L28.818 32.3936" stroke="#F3E2C6" stroke-width="3.05882" stroke-linecap="round" stroke-linejoin="round"/>
<path d="M32.0753 25.6908C28.9024 27.2474 24.5581 28.2059 19.7635 28.2059C10.0495 28.2059 2.17529 24.2679 2.17529 19.4118C2.17529 14.5557 10.0495 10.6177 19.7635 10.6177C28.2727 10.6177 35.3696 13.6393 37 17.653" stroke="#F3E2C6" stroke-width="3.05882" stroke-linecap="round" stroke-linejoin="round"/>
</svg>
