<svg width="50" height="39" viewBox="0 0 50 39" fill="none" xmlns="http://www.w3.org/2000/svg">
<path d="M8.0625 2.8125H42.4375C43.3004 2.8125 44 3.51206 44 4.375C44 5.23794 43.3004 5.9375 42.4375 5.9375H8.0625C7.19956 5.9375 6.5 5.23794 6.5 4.375C6.5 3.51206 7.19956 2.8125 8.0625 2.8125Z" fill="#F6F6F6"/>
<path d="M14.3125 17.9375H42.4375C43.3004 17.9375 44 18.6371 44 19.5C44 20.3629 43.3004 21.0625 42.4375 21.0625H14.3125C13.4496 21.0625 12.75 20.3629 12.75 19.5C12.75 18.6371 13.4496 17.9375 14.3125 17.9375Z" fill="#F6F6F6"/>
<path d="M8.0625 33.0625H42.4375C43.3004 33.0625 44 33.7621 44 34.625C44 35.4879 43.3004 36.1875 42.4375 36.1875H8.0625C7.19956 36.1875 6.5 35.4879 6.5 34.625C6.5 33.7621 7.19956 33.0625 8.0625 33.0625Z" fill="#F6F6F6"/>
</svg>
