<svg width="50" height="39" viewBox="0 0 50 39" fill="none" xmlns="http://www.w3.org/2000/svg">
<path d="M14.5885 7.02585L38.8953 31.3326C39.5055 31.9428 39.5055 32.9322 38.8953 33.5424C38.2851 34.1525 37.2958 34.1525 36.6856 33.5424L12.3788 9.23556C11.7686 8.62537 11.7686 7.63605 12.3788 7.02585C12.989 6.41566 13.9783 6.41566 14.5885 7.02585Z" fill="#F6F6F6"/>
<path d="M12.5885 30.8491L36.8953 6.54235C37.5055 5.93216 38.4948 5.93216 39.105 6.54236C39.7152 7.15255 39.7152 8.14187 39.105 8.75206L14.7982 33.0589C14.188 33.6691 13.1987 33.6691 12.5885 33.0589C11.9783 32.4487 11.9783 31.4593 12.5885 30.8491Z" fill="#F6F6F6"/>
</svg>
