<svg width="195" height="111" viewBox="0 0 195 111" fill="none" xmlns="http://www.w3.org/2000/svg">
<g id="Group">
<path id="Vector" d="M194.464 34.34H135.769H135.09L164.777 0.873535H99.1094H89.8629H30.3221L60.0097 34.34H0.645126L33.5224 71.4126L33.5206 71.4152L67.8612 110.127L97.5487 76.6601L127.236 110.127L159.547 73.7027L159.58 73.665L194.464 34.34ZM89.8042 7.88772L67.8612 32.6224L45.9208 7.88772H89.8042ZM178.865 41.3542L156.925 66.0871L134.988 41.3542H178.865ZM67.8656 43.1805L89.6999 67.8064H46.0252L67.8656 43.1805ZM75.6207 41.3542H119.485L97.5487 66.0862L75.6207 41.3542ZM127.236 43.1849L149.073 67.8064H105.399L127.236 43.1849ZM75.7136 34.34L97.5505 9.72545L119.385 34.34H75.7136ZM127.236 32.6224L105.295 7.88772H149.178L127.236 32.6224ZM60.1096 41.3542L38.1736 66.0871L16.2394 41.3542H60.1096ZM89.8042 74.8206L67.8612 99.5561L45.9182 74.8206H89.8042ZM149.179 74.8206L127.236 99.5561L105.293 74.8206H149.179Z" fill="white" fill-opacity="0.55"/>
</g>
</svg>
