<svg width="127" height="127" viewBox="0 0 127 127" fill="none" xmlns="http://www.w3.org/2000/svg">
<path d="M28.0638 49.8311H30.6941V52.4614V92.9569L42.5919 81.06V37.942H0.97147L0.962708 122.688L12.8605 110.791V52.4614V49.8311H15.4908H28.0638Z" fill="white" fill-opacity="0.55"/>
<path d="M74.9537 96.7208H77.5841V99.352V111.924V114.554H74.9537H22.6735L10.7766 126.452L89.4731 126.444V84.823H52.4058L40.5071 96.7208H74.9537Z" fill="white" fill-opacity="0.55"/>
<path d="M114.978 47.8934V50.5237H112.348H86.7041L74.8151 62.4127H126.867V10.3613L114.978 22.2504V47.8934Z" fill="white" fill-opacity="0.55"/>
<path d="M111.214 12.4367L123.103 0.547607H65.0023V58.6496L76.8914 46.7606V15.067V12.4367H79.5217H111.214Z" fill="white" fill-opacity="0.55"/>
</svg>
