<svg width="46" height="45" viewBox="0 0 46 45" fill="none" xmlns="http://www.w3.org/2000/svg">
<path d="M23.072 40.6753C20.644 40.6753 18.2398 40.1971 15.9967 39.2679C13.7535 38.3388 11.7153 36.9769 9.99849 35.2601C8.28165 33.5432 6.91977 31.505 5.99063 29.2619C5.06148 27.0187 4.58325 24.6145 4.58325 22.1865C4.58325 19.7585 5.06148 17.3543 5.99063 15.1112C6.91977 12.868 8.28165 10.8298 9.99849 9.11299C11.7153 7.39615 13.7535 6.03427 15.9967 5.10513C18.2398 4.17598 20.644 3.69775 23.072 3.69775C27.9755 3.69775 32.6782 5.64567 36.1455 9.11299C39.6129 12.5803 41.5608 17.283 41.5608 22.1865C41.5608 27.09 39.6129 31.7927 36.1455 35.2601C32.6782 38.7274 27.9755 40.6753 23.072 40.6753ZM23.072 40.6753V19.5453C23.072 18.1443 23.6286 16.8006 24.6192 15.81C25.6099 14.8193 26.9535 14.2628 28.3545 14.2628H29.6751M16.4689 24.8278H29.6751" stroke="#F6F6F6" stroke-width="2.77331"/>
</svg>
