<svg width="45" height="45" viewBox="0 0 45 45" fill="none" xmlns="http://www.w3.org/2000/svg">
<path d="M22.4451 29.582C24.4065 29.582 26.2876 28.8029 27.6745 27.4159C29.0614 26.029 29.8406 24.1479 29.8406 22.1865C29.8406 20.2251 29.0614 18.344 27.6745 16.9571C26.2876 15.5702 24.4065 14.791 22.4451 14.791C20.4837 14.791 18.6026 15.5702 17.2157 16.9571C15.8287 18.344 15.0496 20.2251 15.0496 22.1865C15.0496 24.1479 15.8287 26.029 17.2157 27.4159C18.6026 28.8029 20.4837 29.582 22.4451 29.582Z" stroke="#F6F6F6" stroke-width="2.77331" stroke-linecap="round" stroke-linejoin="round"/>
<path d="M5.80518 29.5818V14.7908C5.80518 12.339 6.77913 9.98766 8.51279 8.254C10.2465 6.52035 12.5978 5.54639 15.0496 5.54639H29.8406C32.2923 5.54639 34.6437 6.52035 36.3773 8.254C38.111 9.98766 39.085 12.339 39.085 14.7908V29.5818C39.085 32.0335 38.111 34.3849 36.3773 36.1185C34.6437 37.8522 32.2923 38.8262 29.8406 38.8262H15.0496C12.5978 38.8262 10.2465 37.8522 8.51279 36.1185C6.77913 34.3849 5.80518 32.0335 5.80518 29.5818Z" stroke="#F6F6F6" stroke-width="2.77331"/>
<path d="M32.6139 12.0365L32.6324 12.0161" stroke="#F6F6F6" stroke-width="3.69775" stroke-linecap="round" stroke-linejoin="round"/>
</svg>
