<svg  viewBox="0 0 45 45" fill="none" xmlns="http://www.w3.org/2000/svg">
<path d="M5.68604 5.54639V38.8262H15.3926V5.54639H5.68604ZM29.9525 5.54639C23.4533 5.54639 18.166 10.8337 18.166 17.333C18.166 23.8322 23.4533 29.1196 29.9525 29.1196C36.4518 29.1196 41.7391 23.8322 41.7391 17.333C41.7391 10.8337 36.4518 5.54639 29.9525 5.54639ZM8.45935 8.3197H12.6193V36.0528H8.45935V8.3197ZM29.9525 8.3197C34.9223 8.3197 38.9658 12.3632 38.9658 17.333C38.9658 22.3028 34.9223 26.3462 29.9525 26.3462C27.5632 26.3426 25.2728 25.3918 23.5832 23.7023C21.8937 22.0127 20.9429 19.7223 20.9393 17.333C20.9393 12.3632 24.9828 8.3197 29.9525 8.3197Z" fill="#F6F6F6"/>
</svg>
