<svg width="45" height="45" viewBox="0 0 45 45" fill="none" xmlns="http://www.w3.org/2000/svg">
<g clip-path="url(#clip0_310_471)">
<path d="M15.8832 23.3825L31.4641 37.0917C31.6442 37.2511 31.8626 37.3609 32.098 37.4104C32.3333 37.4598 32.5775 37.4472 32.8065 37.3738C33.0355 37.3004 33.2415 37.1687 33.4042 36.9916C33.5669 36.8145 33.6807 36.5981 33.7345 36.3637L40.2512 7.90552C40.3058 7.66044 40.2929 7.40512 40.2137 7.16682C40.1346 6.92851 39.9922 6.71617 39.8018 6.55247C39.6114 6.38876 39.3801 6.27983 39.1327 6.23731C38.8852 6.19479 38.6308 6.22027 38.3967 6.31103L6.40286 18.8763C5.12034 19.3789 5.29365 21.2507 6.6455 21.528L15.8832 23.3825Z" stroke="#F6F6F6" stroke-width="2.58816" stroke-linecap="round" stroke-linejoin="round"/>
<path d="M15.8833 23.3825L39.4714 6.3457" stroke="#F6F6F6" stroke-width="2.58816" stroke-linecap="round" stroke-linejoin="round"/>
<path d="M23.6651 30.2287L18.2577 35.6361C18.0648 35.832 17.818 35.9661 17.5487 36.0214C17.2794 36.0767 16.9997 36.0507 16.7452 35.9467C16.4907 35.8427 16.2729 35.6653 16.1194 35.4372C15.9659 35.2091 15.8838 34.9405 15.8833 34.6656V23.3828" stroke="#F6F6F6" stroke-width="2.58816" stroke-linecap="round" stroke-linejoin="round"/>
</g>
<defs>
<clipPath id="clip0_310_471">
<rect width="44.3685" height="44.3685" fill="white" transform="translate(0.631592 0.00244141)"/>
</clipPath>
</defs>
</svg>
